<!--?xml version="1.0" standalone="no"?-->
              <svg id="sw-js-blob-svg" viewBox="0 0 100 100" xmlns="http://www.w3.org/2000/svg" version="1.1">
                    <defs> 
                        <linearGradient id="sw-gradient" x1="0" x2="1" y1="1" y2="0">
                            <stop id="stop1" stop-color="rgba(0, 0, 0, 1)" offset="0%"></stop>
                            <stop id="stop2" stop-color="rgba(4.464, 255, 165.452, 1)" offset="100%"></stop>
                        </linearGradient>
                    </defs>
                <path fill="url(#sw-gradient)" d="M19.6,-34.2C26,-30.2,32.2,-26.2,37.1,-20.5C42,-14.8,45.6,-7.4,44.7,-0.5C43.8,6.4,38.4,12.7,33.8,19C29.3,25.2,25.4,31.3,19.9,34.8C14.4,38.2,7.2,39,-0.5,39.9C-8.2,40.8,-16.5,41.8,-23.2,39.1C-30,36.3,-35.2,29.8,-38.4,22.7C-41.6,15.6,-42.7,7.8,-42.5,0.1C-42.4,-7.6,-40.9,-15.2,-37.7,-22.3C-34.5,-29.4,-29.5,-36,-23,-40C-16.4,-43.9,-8.2,-45.2,-0.8,-43.8C6.6,-42.4,13.1,-38.3,19.6,-34.2Z" width="100%" height="100%" transform="translate(50 50)" stroke-width="0" style="transition: all 0.3s ease 0s;" stroke="url(#sw-gradient)"></path>
              </svg>